<?xml version="1.0" encoding="UTF-8" standalone="no"?>
<!-- Created with Inkscape (http://www.inkscape.org/) -->

<svg
   xmlns:dc="http://purl.org/dc/elements/1.1/"
   xmlns:cc="http://creativecommons.org/ns#"
   xmlns:rdf="http://www.w3.org/1999/02/22-rdf-syntax-ns#"
   xmlns:svg="http://www.w3.org/2000/svg"
   xmlns="http://www.w3.org/2000/svg"
   xmlns:sodipodi="http://sodipodi.sourceforge.net/DTD/sodipodi-0.dtd"
   xmlns:inkscape="http://www.inkscape.org/namespaces/inkscape"
   width="444"
   height="444"
   id="svg2"
   version="1.1"
   inkscape:version="0.48.1 "
   sodipodi:docname="EditDelete.svg"
   inkscape:export-filename="D:\work\Azartox\NLB\icons\EditDelete.png"
   inkscape:export-xdpi="4.8648648"
   inkscape:export-ydpi="4.8648648">
  <defs
     id="defs4" />
  <sodipodi:namedview
     id="base"
     pagecolor="#ffffff"
     bordercolor="#666666"
     borderopacity="1.0"
     inkscape:pageopacity="0.0"
     inkscape:pageshadow="2"
     inkscape:zoom="0.35"
     inkscape:cx="84.737319"
     inkscape:cy="195.6636"
     inkscape:document-units="px"
     inkscape:current-layer="layer1"
     showgrid="false"
     inkscape:window-width="1366"
     inkscape:window-height="706"
     inkscape:window-x="-8"
     inkscape:window-y="-8"
     inkscape:window-maximized="1" />
  <metadata
     id="metadata7">
    <rdf:RDF>
      <cc:Work
         rdf:about="">
        <dc:format>image/svg+xml</dc:format>
        <dc:type
           rdf:resource="http://purl.org/dc/dcmitype/StillImage" />
        <dc:title></dc:title>
      </cc:Work>
    </rdf:RDF>
  </metadata>
  <g
     inkscape:label="Layer 1"
     inkscape:groupmode="layer"
     id="layer1"
     transform="translate(0,-608.36218)">
    <path
       style="fill:none;stroke:#000000;stroke-width:16;stroke-linecap:butt;stroke-linejoin:miter;stroke-opacity:1"
       d="m 63.794008,796.99541 c 318.571432,0 318.571432,0 318.571432,0"
       id="path3849-6"
       inkscape:connector-curvature="0" />
    <path
       style="fill:none;stroke:#000000;stroke-width:16;stroke-linecap:butt;stroke-linejoin:miter;stroke-opacity:1"
       d="m 63.079728,744.13827 c 318.571422,0 318.571422,0 318.571422,0"
       id="path3849"
       inkscape:connector-curvature="0" />
    <path
       style="fill:none;stroke:#000000;stroke-width:16;stroke-linecap:butt;stroke-linejoin:miter;stroke-opacity:1"
       d="m 7.249238,1034.2533 0,-349.51909 72.54166,-69.71791 358.839362,0 0,430.3919 -431.381022,0 z"
       id="path3836"
       inkscape:connector-curvature="0"
       inkscape:export-filename="D:\work\Azartox\NLB\icons\EditDelete.png"
       inkscape:export-xdpi="4.8389807"
       inkscape:export-ydpi="4.8389807" />
    <path
       style="fill:none;stroke:#000000;stroke-width:16;stroke-linecap:butt;stroke-linejoin:miter;stroke-opacity:1"
       d="m 7.072748,684.1599 72.22254,0 0,-69.19208"
       id="path3838"
       inkscape:connector-curvature="0" />
    <path
       style="fill:none;stroke:#000000;stroke-width:16;stroke-linecap:butt;stroke-linejoin:miter;stroke-opacity:1"
       d="m 63.794018,851.85255 c 318.571422,0 318.571422,0 318.571422,0"
       id="path3849-4"
       inkscape:connector-curvature="0" />
    <path
       style="fill:none;stroke:#000000;stroke-width:16;stroke-linecap:butt;stroke-linejoin:miter;stroke-opacity:1"
       d="m 65.222588,906.9954 c 318.571422,0 318.571422,0 318.571422,0"
       id="path3849-9"
       inkscape:connector-curvature="0" />
    <path
       style="fill:none;stroke:#000000;stroke-width:16;stroke-linecap:butt;stroke-linejoin:miter;stroke-opacity:1"
       d="m 66.651158,962.7097 c 318.571412,0 318.571412,0 318.571412,0"
       id="path3849-69"
       inkscape:connector-curvature="0" />
    <path
       style="opacity:0.95999995000000005;fill:#ff0000;fill-opacity:1;fill-rule:nonzero;stroke:none;stroke-width:3;stroke-linecap:round;stroke-linejoin:round;stroke-miterlimit:4;stroke-opacity:1;stroke-dasharray:none"
       id="path3927"
       d="m 76.23868,89.369251 c 12.262998,4.742756 23.4996,11.288129 34.52675,18.385089 17.33808,10.9352 35.11767,21.18996 52.25268,32.43576 15.61376,10.18047 30.20058,21.83849 44.90098,33.2783 13.55792,9.91084 26.42452,20.6663 40.18562,30.3072 7.89824,6.614 16.94949,11.66608 25.0385,18.01836 3.49586,2.7453 8.17227,7.02639 11.501,10.00746 9.26779,8.4807 18.44151,16.96866 27.1856,25.99548 8.12366,9.19532 16.58453,18.04317 25.34305,26.63764 7.11484,6.56018 14.94521,12.17874 22.06288,18.77921 6.97289,6.16544 13.67626,12.53672 20.11155,19.26587 5.94272,7.1089 9.77453,15.57141 15.29411,23.03121 4.36116,6.37064 8.63277,12.91432 12.12365,19.8135 1.3493,2.97319 3.32502,5.57129 5.02808,8.34701 0,0 -36.18026,21.07729 -36.18026,21.07729 l 0,0 c -1.85333,-2.8563 -4.02259,-5.52793 -5.37847,-8.67201 -3.17498,-6.78471 -7.20369,-13.18327 -11.41758,-19.36232 -5.33218,-7.36235 -9.20446,-15.58101 -14.97837,-22.58866 -6.36824,-6.68646 -13.17599,-12.83435 -20.01183,-19.03035 -7.11127,-6.60093 -15.07319,-12.15593 -21.86141,-19.08762 -8.59912,-8.77879 -17.11056,-17.63397 -25.3794,-26.72185 -8.53296,-9.04387 -17.80259,-17.24608 -26.66534,-25.95446 C 238.59783,243.08263 226.00549,234.61427 213.6623,225.66107 200.13059,215.70991 187.22416,204.9769 173.72295,194.9833 159.27712,183.45828 144.52178,172.26482 129.25919,161.84437 112.10518,150.63254 94.430179,140.22211 76.899897,129.61104 65.726224,123.0366 54.260603,116.41477 41.464671,113.59998 c 0,0 34.774009,-24.230729 34.774009,-24.230729 z"
       inkscape:connector-curvature="0"
       transform="translate(0,608.36218)" />
    <path
       style="opacity:0.95999995000000005;fill:#ff0000;fill-opacity:1;fill-rule:nonzero;stroke:none;stroke-width:2.98094629999999980;stroke-linecap:round;stroke-linejoin:round;stroke-miterlimit:4;stroke-opacity:1;stroke-dasharray:none"
       id="path3927-3"
       d="m 378.8437,696.81534 c -12.10773,4.74276 -23.20205,11.28813 -34.08957,18.38509 -17.11854,10.9352 -34.673,21.18996 -51.59106,32.43576 -15.41605,10.18047 -29.81816,21.83849 -44.33243,33.2783 -13.38625,9.91084 -26.08993,20.6663 -39.67679,30.3072 -7.79822,6.614 -16.73487,11.66608 -24.72146,18.01836 -3.45159,2.7453 -8.06879,7.02639 -11.35537,10.00746 -9.15044,8.4807 -18.208,16.96866 -26.84138,25.99548 -8.02079,9.19532 -16.37453,18.04317 -25.02214,26.63764 -7.02475,6.56018 -14.75598,12.17874 -21.783526,18.77921 -6.88459,6.16544 -13.503083,12.53672 -19.856891,19.26587 -5.867476,7.1089 -9.65076,15.57141 -15.100453,23.03121 -4.305937,6.37064 -8.523462,12.91432 -11.970136,19.8135 -1.332217,2.97319 -3.282922,5.57129 -4.964421,8.34701 0,0 35.722142,21.07727 35.722142,21.07727 l 0,0 c 1.829862,-2.85628 3.971661,-5.52791 5.310372,-8.67199 3.134773,-6.78471 7.112473,-13.18327 11.273002,-19.36232 5.264661,-7.36235 9.087921,-15.58101 14.788711,-22.58866 6.2876,-6.68646 13.00916,-12.83435 19.75844,-19.03035 7.02123,-6.60093 14.88234,-12.15593 21.5846,-19.08762 8.49024,-8.77879 16.89391,-17.63397 25.05804,-26.72185 8.42492,-9.04387 17.57718,-17.24608 26.3277,-25.95446 11.17927,-10.24873 23.61217,-18.71709 35.79907,-27.67029 13.36038,-9.95116 26.10338,-20.68417 39.43364,-30.67777 14.26291,-11.52502 28.83141,-22.71848 43.90075,-33.13893 16.93681,-11.21183 34.38801,-21.62226 51.69631,-32.23333 11.0322,-6.57444 22.35264,-13.19627 34.98654,-16.01106 0,0 -34.33369,-24.23073 -34.33369,-24.23073 z"
       inkscape:connector-curvature="0" />
  </g>
</svg>
